<svg id="Layer_1" data-name="Layer 1" xmlns="http://www.w3.org/2000/svg" xmlns:xlink="http://www.w3.org/1999/xlink" viewBox="0 0 595.28 841.89"><defs><style>.cls-1{fill:none;}.cls-2{fill:#010101;}.cls-3{fill:#d1191b;}.cls-4{opacity:0.2;}.cls-5{clip-path:url(#clip-path);}.cls-6{fill:#c41d1d;}.cls-7{fill:#991915;}.cls-8{fill:#e20e17;}</style><clipPath id="clip-path"><rect class="cls-1" x="281.98" y="501.68" width="215.4" height="16.74"/></clipPath></defs><path class="cls-2" d="M559.84,392.5l2.74-6.14-14.34-23.78,2.41-4.73c1.18-2.38,3.56-12.94,1.13-14s-8.68,7.76-9.65,10.23l-1.9,4.95L513,364.29l-2.73,6.14,24.57,2.72-3.7,9.66-12.26,2-1.76,4,11.34,1-1.4,3.63a2.45,2.45,0,0,0,4.48,2l1.77-3.46,8.32,7.76,1.77-4-6.7-10.46,4.7-9.22Z"/><path class="cls-3" d="M296.16,498.46v1.36a8.91,8.91,0,0,0-6.58-2.91,10.76,10.76,0,0,0-7.6,18.36l18.11-1.15V498.46Zm0,10.64a6.36,6.36,0,0,1-1.82,3.32,6.72,6.72,0,1,1,0-9.52,6.42,6.42,0,0,1,1.82,3.33Z"/><path class="cls-3" d="M322.11,503.2l2-2c-.59-.67-.95-1.06-1.08-1.19-.3-.3-.61-.58-.92-.85a10.77,10.77,0,0,0-17.44,8.46,10.29,10.29,0,0,0,1.86,6.07l5.45-.34Zm-11.47-.33a6.49,6.49,0,0,1,4.75-2,5.52,5.52,0,0,1,3,.51l-9.18,9.2a5.59,5.59,0,0,1-.51-3,6.5,6.5,0,0,1,2-4.77"/><path class="cls-3" d="M335.51,503.41a5,5,0,0,1,3.4-1.38V498a6.94,6.94,0,0,0-5.39,3.12v-2.63h-3.91v13.79l3.91-.25v-4.09a6.41,6.41,0,0,1,2-4.5"/><path class="cls-3" d="M359.55,500a10.76,10.76,0,0,0-18.36,7.62,10.88,10.88,0,0,0,.68,3.82l4.34-.27a6.74,6.74,0,0,1,1-8.31,6.75,6.75,0,0,1,11.52,4.76,6.7,6.7,0,0,1-.61,2.8l4.32-.28a10.87,10.87,0,0,0,.29-2.52,10.43,10.43,0,0,0-3.14-7.62"/><path class="cls-3" d="M381.1,499.64a6.18,6.18,0,0,0-5-2.23,4.8,4.8,0,0,0-4.93,3.32v-2.27h-3.92v11.41l3.92-.25v-5.94a4.38,4.38,0,0,1,.89-1.17,4.18,4.18,0,0,1,5.84,0,3.89,3.89,0,0,1,1.23,2.89v3.69l3.91-.25v-3.6a8.78,8.78,0,0,0-1.92-5.62"/><path class="cls-3" d="M405.59,498.46v1.36a8.91,8.91,0,0,0-6.57-2.91,10.74,10.74,0,0,0-10.75,10.75c0,.3,0,.58,0,.87l4-.25a6.2,6.2,0,0,1-.06-.62,6.73,6.73,0,0,1,6.75-6.72,6.53,6.53,0,0,1,4.76,2,6.33,6.33,0,0,1,1.81,3.33v1.2l3.93-.24v-8.73Z"/><polygon class="cls-3" points="419.14 498.46 415.21 498.46 415.21 506.82 419.14 506.58 419.14 498.46"/><polygon class="cls-3" points="427.58 498.46 427.58 506.04 431.49 505.79 431.49 498.46 427.58 498.46"/><polygon class="cls-3" points="446.93 502.37 446.93 498.46 443.43 498.46 443.43 491.17 439.52 491.17 439.52 498.46 436.02 498.46 436.02 502.37 439.52 502.37 439.52 505.29 443.43 505.04 443.43 502.37 446.93 502.37"/><path class="cls-3" d="M453.75,496a2.67,2.67,0,0,0,1.94-.79,2.63,2.63,0,0,0,.81-2,2.59,2.59,0,0,0-.81-1.94,2.74,2.74,0,0,0-3.87,0,2.59,2.59,0,0,0-.81,1.94,2.73,2.73,0,0,0,2.74,2.74"/><polygon class="cls-3" points="451.8 498.46 451.8 504.51 455.71 504.26 455.71 498.46 451.8 498.46"/><path class="cls-3" d="M478.93,500a10.76,10.76,0,0,0-15.21,0,10.61,10.61,0,0,0-2.51,3.88l4.74-.3a8.24,8.24,0,0,1,.61-.74,6.72,6.72,0,0,1,9.51,0l.1.09,4.72-.3.12,0a26.54,26.54,0,0,0-2.08-2.59"/><path class="cls-3" d="M491.51,501.81a1.4,1.4,0,0,1,.6.14l4.37-.28a4.7,4.7,0,0,0-1.33-2.32,4.91,4.91,0,0,0-3.64-1.47,5.29,5.29,0,0,0-5.21,4.44l4.5-.28a1.25,1.25,0,0,1,.71-.23"/><path class="cls-3" d="M289.58,518.41a8.86,8.86,0,0,0,6.58-2.93v2.44h3.93v-3.8L282,515.27a10.38,10.38,0,0,0,7.6,3.14"/><path class="cls-3" d="M315.39,514.37a5.47,5.47,0,0,1-3.57-.87l.13-.13-5.45.34a11.65,11.65,0,0,0,1.29,1.55,10.76,10.76,0,0,0,15.21,0,26.06,26.06,0,0,0,2.08-2.63l-.23-.08-5.26.33a6.53,6.53,0,0,1-4.2,1.49"/><polygon class="cls-3" points="329.61 517.9 333.52 517.9 333.52 512 329.61 512.25 329.61 517.9"/><path class="cls-3" d="M356.71,512.41a6.78,6.78,0,0,1-9.54,0,7.18,7.18,0,0,1-1-1.21l-4.34.27a10.68,10.68,0,0,0,2.48,3.79,10.75,10.75,0,0,0,18-5.09l-4.32.28a6.89,6.89,0,0,1-1.37,2"/><polygon class="cls-3" points="367.23 517.9 371.15 517.9 371.15 509.62 367.23 509.87 367.23 517.9"/><polygon class="cls-3" points="379.11 517.9 383.02 517.9 383.02 508.87 379.11 509.11 379.11 517.9"/><path class="cls-3" d="M405.59,509.1a6.27,6.27,0,0,1-1.81,3.32,6.75,6.75,0,0,1-9.53,0,6.43,6.43,0,0,1-1.92-4.15l-4,.26A10.71,10.71,0,0,0,399,518.41a8.86,8.86,0,0,0,6.57-2.93v2.44h3.93V507.19l-3.93.24Z"/><path class="cls-3" d="M427.58,510.14a3.88,3.88,0,0,1-1.24,2.9,4,4,0,0,1-2.91,1.2,4.18,4.18,0,0,1-3.07-1.21,4,4,0,0,1-1.22-2.89v-3.56l-3.93.24v3.47a7.84,7.84,0,0,0,2.3,5.63,8,8,0,0,0,5.93,2.25,7.81,7.81,0,0,0,5.77-2.25,7.91,7.91,0,0,0,2.28-5.63v-4.5l-3.91.25Z"/><polygon class="cls-3" points="439.52 517.9 443.43 517.9 443.43 505.04 439.52 505.29 439.52 517.9"/><polygon class="cls-3" points="451.8 517.9 455.71 517.9 455.71 504.26 451.8 504.51 451.8 517.9"/><path class="cls-3" d="M460.56,507.65a10.76,10.76,0,0,0,18.37,7.61,27.63,27.63,0,0,0,2.08-2.63l-3.92-1.4c-.5.61-.83,1-1,1.17A6.72,6.72,0,0,1,466,503.61l-4.74.3a10.88,10.88,0,0,0-.65,3.74"/><path class="cls-3" d="M495.55,507.65a15.57,15.57,0,0,0-3.4-2.35,12.28,12.28,0,0,1-1.62-1.15,1.29,1.29,0,0,1-.4-1,1.34,1.34,0,0,1,.41-1,1.45,1.45,0,0,1,.26-.17l-4.5.28a4.94,4.94,0,0,0-.08.87,5.05,5.05,0,0,0,1.55,3.72,13.75,13.75,0,0,0,3,2,13.58,13.58,0,0,1,2,1.45,2.23,2.23,0,0,1,.68,1.65,2.35,2.35,0,0,1-4,1.68,2.35,2.35,0,0,1-.53-1.23l-3.89.83a6.16,6.16,0,0,0,1.66,3.16,6.23,6.23,0,0,0,8.85,0,6.28,6.28,0,0,0,0-8.85"/><path class="cls-3" d="M492.42,502.15a2,2,0,0,1,.26.62l3.8-1.1-4.37.28a1.27,1.27,0,0,1,.31.2"/><path class="cls-3" d="M477.09,504.06l3.8-1.4-4.73.3c.2.21.5.57.93,1.1"/><path class="cls-3" d="M320.17,512.41c-.19.18-.39.32-.58.47l5.26-.33-3.68-1.32-1,1.18"/><g class="cls-4"><g class="cls-5"><path class="cls-2" d="M289.58,518.41a8.86,8.86,0,0,0,6.58-2.93v2.44h3.93v-3.8L282,515.27a10.38,10.38,0,0,0,7.6,3.14"/><path class="cls-2" d="M315.39,514.37a5.47,5.47,0,0,1-3.57-.87l.13-.13-5.45.34a11.65,11.65,0,0,0,1.29,1.55,10.76,10.76,0,0,0,15.21,0,26.06,26.06,0,0,0,2.08-2.63l-.23-.08-5.26.33a6.53,6.53,0,0,1-4.2,1.49"/><polygon class="cls-2" points="329.61 517.9 333.52 517.9 333.52 512 329.61 512.25 329.61 517.9"/><path class="cls-2" d="M356.71,512.41a6.78,6.78,0,0,1-9.54,0,7.18,7.18,0,0,1-1-1.21l-4.34.27a10.68,10.68,0,0,0,2.48,3.79,10.75,10.75,0,0,0,18-5.09l-4.32.28a6.89,6.89,0,0,1-1.37,2"/><polygon class="cls-2" points="367.23 517.9 371.15 517.9 371.15 509.62 367.23 509.87 367.23 517.9"/><polygon class="cls-2" points="379.11 517.9 383.02 517.9 383.02 508.87 379.11 509.11 379.11 517.9"/><path class="cls-2" d="M405.59,509.1a6.27,6.27,0,0,1-1.81,3.32,6.75,6.75,0,0,1-9.53,0,6.43,6.43,0,0,1-1.92-4.15l-4,.26A10.71,10.71,0,0,0,399,518.41a8.86,8.86,0,0,0,6.57-2.93v2.44h3.93V507.19l-3.93.24Z"/><path class="cls-2" d="M427.58,510.14a3.88,3.88,0,0,1-1.24,2.9,4,4,0,0,1-2.91,1.2,4.18,4.18,0,0,1-3.07-1.21,4,4,0,0,1-1.22-2.89v-3.56l-3.93.24v3.47a7.84,7.84,0,0,0,2.3,5.63,8,8,0,0,0,5.93,2.25,7.81,7.81,0,0,0,5.77-2.25,7.91,7.91,0,0,0,2.28-5.63v-4.5l-3.91.25Z"/><polygon class="cls-2" points="439.52 517.9 443.43 517.9 443.43 505.04 439.52 505.29 439.52 517.9"/><polygon class="cls-2" points="451.8 517.9 455.71 517.9 455.71 504.26 451.8 504.51 451.8 517.9"/><path class="cls-2" d="M460.56,507.65a10.76,10.76,0,0,0,18.37,7.61,27.63,27.63,0,0,0,2.08-2.63l-3.92-1.4c-.5.61-.83,1-1,1.17A6.72,6.72,0,0,1,466,503.61l-4.74.3a10.88,10.88,0,0,0-.65,3.74"/><path class="cls-2" d="M495.55,507.65a15.57,15.57,0,0,0-3.4-2.35,12.28,12.28,0,0,1-1.62-1.15,1.29,1.29,0,0,1-.4-1,1.34,1.34,0,0,1,.41-1,1.45,1.45,0,0,1,.26-.17l-4.5.28a4.94,4.94,0,0,0-.08.87,5.05,5.05,0,0,0,1.55,3.72,13.75,13.75,0,0,0,3,2,13.58,13.58,0,0,1,2,1.45,2.23,2.23,0,0,1,.68,1.65,2.35,2.35,0,0,1-4,1.68,2.35,2.35,0,0,1-.53-1.23l-3.89.83a6.16,6.16,0,0,0,1.66,3.16,6.23,6.23,0,0,0,8.85,0,6.28,6.28,0,0,0,0-8.85"/><path class="cls-2" d="M492.42,502.15a2,2,0,0,1,.26.62l3.8-1.1-4.37.28a1.27,1.27,0,0,1,.31.2"/><path class="cls-2" d="M477.09,504.06l3.8-1.4-4.73.3c.2.21.5.57.93,1.1"/><path class="cls-2" d="M320.17,512.41c-.19.18-.39.32-.58.47l5.26-.33-3.68-1.32-1,1.18"/></g></g><path class="cls-2" d="M526.91,393.87c-6.69,18.64-7.2,26.14-10,34.27s-5.59,15.4-9.77,21.8-8.88,9.59-14.09,9.59h-.48q-3.55-.24-5.09-4.26a29.59,29.59,0,0,1-1.54-10.43,137.28,137.28,0,0,1,1.77-20.37q1.79-11.61,4.15-23.93Q494,388.69,495.73,378a113.93,113.93,0,0,0,1.77-18.24q0-9-3.55-11.37a30.06,30.06,0,0,0-6.39-.71,24.87,24.87,0,0,0-9.48,1.65,41,41,0,0,0-8.29,4.74c0,2.37-.16,5.3-.48,8.77q-3.56-6.87-8.17-9.95a17.1,17.1,0,0,0-9.6-3.08q-12.32,0-23.57,14.33t-14.1,34.24a88.64,88.64,0,0,0-.71,10.9,76.61,76.61,0,0,0,.56,9.39c-1.88,4-3.65,7.69-5.29,11a229.23,229.23,0,0,1-12.91,22.75q-6.52,9.94-11.26,10.66H384c-2.36-.16-3.55-2.06-3.55-5.69q0-5.68,2.84-15.75T390.19,419q5.67-17.77,10.65-36.84t5-34.24q0-10.43-3.43-17.65a17.64,17.64,0,0,0-11.49-9.59l-2.85-.48q-7.35,0-15.4,9.13a136.28,136.28,0,0,0-15.52,22q-7.45,12.92-13.38,25.7a93.27,93.27,0,0,0-4.27-21.67c-2.05-5.93-4.66-9.2-7.81-9.84h-.95q-5.22,0-11.26,5.22A88.59,88.59,0,0,0,308,362.87l.24-4a32.41,32.41,0,0,0-1.07-8.76,13.76,13.76,0,0,0-3.43-6.16,5,5,0,0,0-3.32-1.19,10.41,10.41,0,0,0-5.57,1.9,47.76,47.76,0,0,0-5.56,4.14,64.91,64.91,0,0,0-5.93,6q-3.78,17.31-3.79,42.18c0,.53,0,1.06,0,1.6s-.15,1.18-.25,2a35.74,35.74,0,0,1-2.61,8.65,39,39,0,0,1-7.11,10.66q-5,5.56-14,10.07,3.31-40.76,3.31-62.55,0-9.47-.71-12.32c-.79-2.37-2.69-4.22-5.68-5.57a22.51,22.51,0,0,0-9.24-2,16.65,16.65,0,0,0-9,2.37c-.47,1.26-.87,2.37-1.18,3.32s-.68,2.21-1.07,3.31-.71,2.1-.94,3a10.13,10.13,0,0,0-.36,1.55q-6.87-7.83-13.5-11.38a27.09,27.09,0,0,0-12.8-3.55q-12.31,0-22.15,10.9t-15.52,27a96.37,96.37,0,0,0-5.6,27.77c-1.16,3.7-2.34,7-3.52,10a74.92,74.92,0,0,1-9.59,17.42q-5.69,7.57-13.51,7.58h-.71a5.85,5.85,0,0,1-5.33-4A27.54,27.54,0,0,1,127,432.52a118.28,118.28,0,0,1,1.54-17.65q1.55-10.06,3.67-20.49,1.9-10.42,3.44-19.78a101.65,101.65,0,0,0,1.54-16q0-8.52-3.56-11.13a29.73,29.73,0,0,0-6.16-.71,25.44,25.44,0,0,0-9.71,1.66,35.66,35.66,0,0,0-8.29,5v1.42a166,166,0,0,1-2.37,24.41q-1.42,9.24-2.61,19.42-.45,4-.72,7.9a8.55,8.55,0,0,1-2.87.48h-.71a32.48,32.48,0,0,1-9.74-2.14,22.86,22.86,0,0,0-9.74-1.9,31.79,31.79,0,0,0-7.13.95l-4.75-5.7a91.65,91.65,0,0,1-7.12-8.55c.15-.47.31-1,.47-1.66q2.61-6.42,5.58-16.27a64.72,64.72,0,0,0,3-18.65,21.4,21.4,0,0,0-3.2-12q-3.21-4.87-11.52-4.87-12.84,0-18.06,7.48a30.56,30.56,0,0,0-5.22,17.93q0,18.54,11.4,36.35A179.4,179.4,0,0,1,55,415.33a52.93,52.93,0,0,0-12.36,19.24,61.49,61.49,0,0,0-4,21.38q0,12.35,5.7,21.26t17.1,8.91l2.85-.24q10.45-1.42,18.76-11.52t8.32-26a59.25,59.25,0,0,0-3.21-18.53A81.32,81.32,0,0,0,77.59,409.4a19.5,19.5,0,0,1,4.28-.48,37.59,37.59,0,0,1,10.92,1.66,35,35,0,0,0,7.6,1.43h1.19a10.29,10.29,0,0,0,1.86-.17c-.1,2.25-.16,4.49-.16,6.71a82.33,82.33,0,0,0,2.37,20.25,32.28,32.28,0,0,0,8.29,15.28q5.93,5.93,16.82,6.87h1.66a21.85,21.85,0,0,0,15.87-6.51,53.82,53.82,0,0,0,11-16c1.29-2.8,2.44-5.61,3.49-8.42a45.58,45.58,0,0,0,4.44,11.26q6.16,10.89,20.14,12.56H189q8.29,0,15.87-7a78.55,78.55,0,0,0,14.1-18,188.21,188.21,0,0,0,11.73-23.57v2.6q-.7,15.17-1.66,31Q214.15,444.6,205,454.44a61.33,61.33,0,0,0-13.26,21.79,72.26,72.26,0,0,0-4.15,23.82q0,18,7.7,31.63t19.07,13.62h.24q13.26-1.42,21.68-21.68A216.62,216.62,0,0,0,249.1,479.2q4.38-24.17,5.57-37.67,17.29-8.29,24.16-21.68c.7-1.36,1.33-2.68,1.94-4a117.57,117.57,0,0,0,2.33,12.5q3.54,14.56,13.26,19.78a6,6,0,0,0,2.61.71,5.08,5.08,0,0,0,3.55-1.3,9.68,9.68,0,0,0,2.25-3.08q.84-1.78,1.78-4.39-2.61-2.13-3.55-8.64a100.58,100.58,0,0,1-.95-14.57q0-8.06.59-15.52c.4-5,.75-8.57,1.07-10.78A145.34,145.34,0,0,1,312,375q4.5-7.33,7.82-7.34c.79,0,1.5.55,2.13,1.66a19.44,19.44,0,0,1,2.13,9.24A67,67,0,0,1,322,394.14a91.49,91.49,0,0,0-2.61,22.27q0,8.77,3.8,11.49a12.89,12.89,0,0,0,7.58,2.73,14.08,14.08,0,0,0,3.2-.36c1-.23,2.09-.51,3.19-.83.79-.47,2.14-3,4-7.58s4.11-10.26,6.64-17.06q4.49-12.56,9.83-25.7a193.9,193.9,0,0,1,10.54-22.39q5.21-9.24,9.24-9.24h.71q3.31.94,3.32,6.63,0,6.16-3.08,16.71T371,394.38q-5.92,17.06-10.78,34.83t-4.85,31.27q0,10.18,4,16.7t13.75,7.47h.71q7.34,0,15.28-9a126.43,126.43,0,0,0,15.16-21.91q6.69-12,12.05-24a30.51,30.51,0,0,0,4.18,7.8q7.33,9.72,17.05,9.71,6.63,0,13.39-4.73t12-14.7q0,17.07,5.8,29t21,13.38h1.42q9.47,0,16.35-7.46a47.61,47.61,0,0,0,10.71-18.36c3.31-10.53,4-14.53,5.91-21.8s3.15-15.88,7.54-27.38ZM50.28,358.8q0-11.16,5.46-13.06l1.42-.24a4.31,4.31,0,0,1,4.28,2.73,17.78,17.78,0,0,1,1.19,7,61.65,61.65,0,0,1-2.14,15.2c-1.43,5.55-2.61,9.58-3.56,12.12Q50.27,368.55,50.28,358.8Zm13.3,108.55-3.33.48a7.51,7.51,0,0,1-7.36-4.52,25.92,25.92,0,0,1-2.14-11.16,56.37,56.37,0,0,1,2.38-15.79,47.2,47.2,0,0,1,5.93-13.43,172.14,172.14,0,0,1,8.2,17.94q3.43,8.91,3.44,15.56Q70.7,464.74,63.58,467.35Zm147.5-54.25q-8.78,20.37-15.17,24.16l-.95.24q-2.61,0-3.91-5.69a65.59,65.59,0,0,1-1.3-14.21,144,144,0,0,1,2.37-25,90.71,90.71,0,0,1,7-23.1q4.62-9.71,11.49-9.71t15.88,13Q219.84,392.73,211.08,413.1Zm12.2,84.7q-3.21,20-7.94,21-5,0-8.06-7.11a42.75,42.75,0,0,1-3.08-17,62.68,62.68,0,0,1,5.57-25.12,39.74,39.74,0,0,1,18.6-19.66Q226.46,477.77,223.28,497.8Zm235.61-83.64q-6.63,13.39-12.32,13.39-3.09,0-5.1-4.5c-1.34-3-2-7.59-2-13.74a121.93,121.93,0,0,1,.71-12.32,75.3,75.3,0,0,1,5.57-21.33q4.14-9.46,10.3-9.47,5.44,0,11.85,9.71Q465.52,400.77,458.89,414.16Z"/><path class="cls-1" d="M125.58,333.21h0a7.88,7.88,0,0,0,1.09-.08l-.26,0Z"/><path class="cls-1" d="M120.1,311.54a8.11,8.11,0,0,0-.62.55,10.61,10.61,0,0,0-1.33,1.57,13.37,13.37,0,0,0-2.34,7.69v.29a14.41,14.41,0,0,0,.14,1.76,12.48,12.48,0,0,0,3.64,7.31,8.66,8.66,0,0,0,6,2.5h0a7.88,7.88,0,0,0,1.09-.08,7.51,7.51,0,0,0,1-.21c3.77-1,6.71-4.68,7.45-9.29a12.94,12.94,0,0,0,.17-1.77c0-.17,0-.34,0-.51a13.46,13.46,0,0,0-2.19-7.49,9.24,9.24,0,0,0-7.58-4.37A8.57,8.57,0,0,0,120.1,311.54Z"/><path class="cls-6" d="M142.9,310.47l44-13.88L125,300.75l0,.05a21.4,21.4,0,0,0-9.75,2.44,12.71,12.71,0,0,0-1.71,1.14,17.07,17.07,0,0,0-4.78,6.28c-.24.54-.46,1.09-.67,1.66a26.18,26.18,0,0,0-1.46,8.09c0,.26,0,.53,0,.79s0,.64,0,1a29.32,29.32,0,0,0,1.29,8.46,15.29,15.29,0,0,0,4.87,7.41c3.18,2.53,8.64,3.59,12.92,3.59s9-1.08,12.16-3.61a17.41,17.41,0,0,0,5.16-7.16,25.61,25.61,0,0,0,1.75-8.52c0-.38,0-.75,0-1.13,0-.21,0-.41,0-.62a27.67,27.67,0,0,0-.76-5.88l-12.62-2.79Zm-9.74,3.39a13.46,13.46,0,0,1,2.19,7.49c0,.17,0,.34,0,.51a12.94,12.94,0,0,1-.17,1.77c-.74,4.61-3.68,8.27-7.45,9.29a7.51,7.51,0,0,1-1,.21,7.88,7.88,0,0,1-1.09.08h0a8.66,8.66,0,0,1-6-2.5A12.48,12.48,0,0,1,116,323.4a14.41,14.41,0,0,1-.14-1.76v-.29a13.37,13.37,0,0,1,2.34-7.69,10.61,10.61,0,0,1,1.33-1.57,8.11,8.11,0,0,1,.62-.55,8.57,8.57,0,0,1,5.48-2.05A9.24,9.24,0,0,1,133.16,313.86Z"/><path class="cls-7" d="M131.48,311.91l12.62,2.79a22.76,22.76,0,0,0-.65-2.22,17.38,17.38,0,0,0-.8-1.93l.25-.08Z"/><polygon class="cls-8" points="142.66 310.55 179.87 305.83 142.9 310.47 142.66 310.55"/><path class="cls-7" d="M186.91,296.59l-44,13.88,37-4.64A8.21,8.21,0,0,0,186.91,296.59Z"/><path class="cls-6" d="M107.11,309.82a18.54,18.54,0,0,1,5.26-6.91l.07-.06L65.9,296.59l41,13.8C106.94,310.2,107,310,107.11,309.82Z"/><path class="cls-7" d="M106.86,310.39l-41-13.8a8.21,8.21,0,0,0,7,9.24Z"/><path class="cls-6" d="M72.2,307.48l32.58,12.67a28.6,28.6,0,0,1,1.45-8.09l-34-4.58Z"/><path class="cls-7" d="M79.25,316.72l25.53,3.43L72.2,307.48A8.22,8.22,0,0,0,79.25,316.72Z"/><path class="cls-6" d="M104.75,321.89l-26.07-3.5,27.08,11.93a35.08,35.08,0,0,1-1-7.86C104.76,322.27,104.75,322.08,104.75,321.89Z"/><path class="cls-7" d="M85.72,327.63l20,2.69L78.68,318.39A8.22,8.22,0,0,0,85.72,327.63Z"/><path class="cls-7" d="M146.72,320.33l26.84-3.61a8.22,8.22,0,0,0,7.05-9.24Z"/><path class="cls-6" d="M180.61,307.48l-35.29,4.75a28.71,28.71,0,0,1,1.4,8.1l33.89-12.85Z"/><path class="cls-7" d="M145.33,330.55l21.76-2.92a8.23,8.23,0,0,0,7-9.24Z"/><path class="cls-6" d="M146.74,322.07c0,.19,0,.39,0,.58a28.45,28.45,0,0,1-1.39,7.9l28.81-12.16Z"/></svg>